<?xml version="1.0" encoding="UTF-8" standalone="no"?>
<svg
   xmlns:dc="http://purl.org/dc/elements/1.1/"
   xmlns:cc="http://creativecommons.org/ns#"
   xmlns:rdf="http://www.w3.org/1999/02/22-rdf-syntax-ns#"
   xmlns:svg="http://www.w3.org/2000/svg"
   xmlns="http://www.w3.org/2000/svg"
   viewBox="0 0 1893.5433 1893.5433"
   height="1893.5433"
   width="1893.5433"
   xml:space="preserve"
   id="svg2"
   version="1.1"><metadata
     id="metadata8"><rdf:RDF><cc:Work
         rdf:about=""><dc:format>image/svg+xml</dc:format><dc:type
           rdf:resource="http://purl.org/dc/dcmitype/StillImage" /></cc:Work></rdf:RDF></metadata><defs
     id="defs6" /><g
     transform="matrix(1.3333333,0,0,-1.3333333,0,1893.5433)"
     id="g10"><path
       id="path12"
       style="fill:#FFFFFF;fill-opacity:1;fill-rule:evenodd;stroke:#FFFFFF;stroke-width:0.21600001;stroke-linecap:butt;stroke-linejoin:bevel;stroke-miterlimit:22.92558479;stroke-dasharray:none;stroke-opacity:1"
       d="m 1256.5301,743.6208 -54.0037,-83.3632 h 54.0037 z m -7.7148,20.7873 -2.7669,2.7145 -2.6991,2.2082 -2.8548,1.9409 -2.1739,1.2429 -2.2561,1.1016 -2.9188,1.1596 -3.3197,0.978 -3.4336,0.6661 -2.8941,0.3133 -2.9707,0.1043 -4.5258,-0.2251 -3.7287,-0.5516 -3.5901,-0.8827 -3.4512,-1.2135 -3.3123,-1.5446 -3.1734,-1.8754 -3.0344,-2.2065 -1.4653,-1.2274 -1.8995,-1.7652 -2.6348,-2.8306 -2.2986,-2.9761 -1.9621,-3.1213 -1.6257,-3.2669 -1.2895,-3.4118 -0.953,-3.5574 -0.6165,-3.7027 -0.2245,-2.5492 -0.075,-2.6138 V 660.204 l 68.1477,104.2041 z M 1086.5891,655.3284 h -53.1465 l 0.2441,-5.5032 0.733,-5.366 1.2215,-5.2293 1.7101,-5.0919 2.1989,-4.9547 2.6271,-4.723 2.996,-4.3974 3.3647,-4.0717 3.7329,-3.746 4.1018,-3.4203 z m 63.2192,-0.4286 -41.3604,0.4286 -36.0025,-55.29 6.8213,-1.8142 5.7308,-0.9836 3.3091,-0.3124 3.2117,-0.1043 5.7084,0.2455 5.5018,0.7358 5.2948,1.2269 5.0882,1.7172 4.8815,2.2079 4.6747,2.6989 4.4679,3.1892 2.8639,2.3987 2.7717,2.6169 3.8435,4.1891 3.3528,4.3897 2.8624,4.5904 2.3715,4.7909 1.8808,4.9915 1.3904,5.1925 0.8994,5.3926 0.3271,3.7066 z m -5.3575,87.0066 10.072,16.287 h -21.2159 l -61.5044,-94.507 4.9558,-1.5001 4.5805,-1.0715 3.7032,-0.5488 3.0248,-0.2313 3.2372,-0.0771 5.6149,0.2452 5.4266,0.7358 5.2382,1.2269 5.0502,1.7172 4.8619,2.2079 4.6735,2.6989 4.4856,3.1892 2.8856,2.3987 2.8021,2.617 3.892,4.1893 3.395,4.3897 2.8981,4.5902 2.4016,4.7911 1.9043,4.9915 1.4077,5.1919 0.911,5.393 0.3311,3.7065 0.1106,3.7956 -0.2143,5.438 -0.6429,5.1698 -0.6197,2.8146 -1.4318,4.5425 z m -88.721,-69.4338 63.2191,97.2797 -5.2892,2.5506 -4.8625,1.8111 -4.9598,1.3518 -5.0573,0.8926 -3.4254,0.3402 -4.0507,0.1389 -6.6419,-0.3325 -5.4725,-0.8144 -5.2688,-1.3028 -5.0649,-1.7915 -4.8614,-2.2802 -4.6576,-2.7686 -4.4541,-3.2573 -2.1507,-1.8119 -2.7884,-2.6056 -3.8676,-4.18 -3.3741,-4.3962 -2.8803,-4.6128 -2.3862,-4.8291 -1.8929,-5.0457 -1.3989,-5.262 -0.9051,-5.4785 -0.3292,-3.7726 -0.1097,-3.8687 0.2399,-5.4196 0.7202,-5.2654 1.1999,-5.1108 1.6801,-4.9564 2.1603,-4.8019 2.5974,-4.5955 2.9914,-4.3382 3.386,-4.0799 3.7803,-3.8222 z M 959.08,660.2576 h 43.0747 V 776.6232 L 959.08,709.9753 Z m 43.5033,150.654 H 959.08 v -67.2908 z m -93.007,-76.9342 -37.0741,-57.0045 -2.1778,2.7624 -1.6538,2.5608 -1.4187,2.6955 -1.1832,2.8298 -1.0644,3.3987 -0.5964,2.664 -0.4776,3.2332 -2.5716,-3.8574 0.8538,-3.6615 1.1735,-3.5781 1.6784,-3.8781 2.0727,-3.7752 1.4329,-2.2156 1.5749,-2.1787 2.7794,-2.9253 2.732,-2.3998 2.9087,-2.1303 2.226,-1.3796 2.319,-1.237 3.0048,-1.3116 3.0985,-1.0202 3.1933,-0.7285 3.2873,-0.4371 3.3817,-0.1457 3.6414,0.1604 3.5181,0.4813 3.3945,0.8022 3.2709,1.1234 3.1478,1.4443 3.024,1.7651 2.901,2.086 1.8652,1.5693 1.8105,1.7115 2.9018,3.2043 2.1396,2.8803 1.8187,3.0036 1.4976,3.1269 1.1769,3.2505 0.8558,3.3741 0.5349,3.4973 0.1471,1.7949 0.0712,2.4415 -0.1534,3.3698 -0.4598,3.269 -0.7665,3.1682 -1.0732,3.0677 -1.3799,2.9665 -1.6863,2.8658 -1.1015,1.5925 -1.2014,1.5593 -2.9375,3.3052 -3.1805,2.9716 -3.4234,2.6385 -3.6663,2.3051 -3.0198,1.5627 z m 4.0717,39.6456 -2.3069,1.1528 -1.9941,0.7759 -1.1781,0.3572 -1.1642,0.2758 -2.509,0.3855 -2.5562,0.2004 -2.8639,0.0669 -3.6414,-0.1579 -3.518,-0.4737 -3.3945,-0.7897 -3.2712,-1.1052 -3.1476,-1.4213 -3.0243,-1.7371 -2.9007,-2.0529 -1.8652,-1.544 -1.8105,-1.6843 -2.514,-2.7031 -2.1932,-2.8455 -1.872,-2.9877 -1.5511,-3.13 -1.2302,-3.2723 -0.9094,-3.4149 -0.5885,-3.5572 -0.214,-2.4503 -0.0711,-2.5137 0.1757,-3.839 0.5278,-3.6714 0.7084,-2.9319 0.9527,-2.8157 1.1971,-2.6994 1.4414,-2.5832 1.6858,-2.467 2.3454,-2.8071 1.3045,-1.3408 1.8762,-1.7226 37.9313,59.1471 2.8034,-1.0808 2.6499,-1.3221 2.4962,-1.5636 2.3425,-1.8048 2.1889,-2.0464 1.2901,-1.4014 1.2302,-1.4959 1.7144,2.7859 -2.2436,2.5098 -2.1339,1.9763 -2.2658,1.7453 -2.3975,1.5225 -2.5291,1.3076 z M 787.2103,719.619 h 52.7182 l -0.2359,5.1647 -0.7072,5.0361 -1.1787,4.9076 -1.65,4.7789 -2.1215,4.6503 -2.5588,4.4617 -2.9616,4.2131 -3.3645,3.9646 -3.7675,3.7162 -4.1703,3.4673 z m 13.2866,53.1468 -5.3672,1.9687 -2.0792,0.6057 -2.1971,0.5312 -3.7032,0.6183 -2.9123,0.2608 -3.028,0.087 -5.6571,-0.2458 -5.4502,-0.7373 -5.2435,-1.2291 -5.0369,-1.7203 -4.8299,-2.2122 -4.6233,-2.7037 -4.4164,-3.1952 -2.8295,-2.4035 -2.7377,-2.6217 -3.7951,-4.1998 -3.3108,-4.4074 -2.8262,-4.6142 -2.3417,-4.8214 -1.8572,-5.0284 -1.3726,-5.2356 -0.8884,-5.4425 -0.3228,-3.7435 -0.1077,-3.8355 0.3254,-6.9149 0.7974,-5.6423 1.2753,-5.3796 1.7538,-5.1165 2.2323,-4.8541 2.7104,-4.591 3.1887,-4.3285 1.774,-2.0656 2.5509,-2.6521 4.0986,-3.6567 4.3239,-3.1901 4.5494,-2.7235 4.7744,-2.2564 4.9997,-1.7895 5.2251,-1.3227 5.4502,-0.8557 3.7587,-0.3113 3.8588,-0.1037 6.067,0.2837 5.3771,0.7591 5.2007,1.2362 3.6714,1.1988 3.5785,1.4511 4.7262,2.3658 4.4671,2.7598 4.208,3.1541 2.8973,2.5415 3.0954,3.1082 -2.1429,2.7859 -4.394,-4.2182 -4.3387,-3.4696 -4.6103,-3.0623 -2.4072,-1.3785 -2.8939,-1.4794 -4.2605,-1.813 -4.3803,-1.4103 -4.5003,-1.0071 -4.6202,-0.6044 -4.7404,-0.2012 -5.1134,0.2233 -4.9683,0.6701 -4.8231,1.1172 -3.4166,1.093 -3.7517,1.512 -4.4016,2.213 -4.1525,2.5767 -3.9039,2.9407 -2.6827,2.3669 -2.8607,2.893 z M 650.7003,660.2576 h 42.8601 v 116.3656 l -70.7193,-109.2938 7.2388,-3.1314 3.263,-1.152 3.2134,-0.9669 4.3395,-0.9794 4.803,-0.6318 z m 42.8601,150.654 v 17.7871 H 650.486 v -52.0755 l -5.6118,-0.2452 -5.4175,-0.7362 -5.2229,-1.2265 -5.0286,-1.7173 -4.834,-2.2081 -4.6397,-2.6986 -4.4453,-3.1893 -2.8556,-2.3989 -2.7692,-2.6167 -3.8435,-4.1924 -3.3528,-4.3989 -2.8621,-4.606 -2.3718,-4.8123 -1.8808,-5.0194 -1.3901,-5.2259 -0.8997,-5.4329 -0.3271,-3.7366 -0.1089,-3.8288 0.2753,-5.9088 0.7427,-5.2617 1.0927,-4.6604 0.9006,-2.8848 1.0604,-2.8216 2.1643,-4.6783 2.584,-4.4686 3.0036,-4.2584 1.946,-2.3874 2.0886,-2.3159 z" /><path
       id="path14"
       style="fill:#FFFFFF;fill-opacity:1;fill-rule:evenodd;stroke:#FFFFFF;stroke-width:0.21600001;stroke-linecap:butt;stroke-linejoin:bevel;stroke-miterlimit:22.92558479;stroke-dasharray:none;stroke-opacity:1"
       d="m 207.2188,711.1372 1.918,-48.7103 5.6446,-42.6676 9.3424,-41.8862 13.03,-40.9249 16.7086,-39.7831 9.7302,-19.4068 13.4506,-23.7597 30.6633,-45.8893 34.1906,-41.7322 32.1415,-32.3135 34.7828,-28.9922 37.4465,-25.5476 40.1338,-21.9792 42.8434,-18.2877 45.576,-14.4729 47.9185,-10.4865 48.231,-6.0211 44.7301,-1.6361 44.8668,2.0897 40.2448,5.4995 39.2145,9.1224 42.3732,13.9754 45.1666,19.5075 43.6686,23.2429 34.8072,24.1274 33.5381,26.2939 15.9321,12.7516 3.6828,2.2972 2.9894,1.4471 2.3485,0.8467 2.3171,0.5658 1.7209,0.2384 1.7096,0.0766 1.7007,-0.0862 1.6952,-0.2509 1.6914,-0.417 1.6911,-0.5847 2.2584,-1.0432 2.2683,-1.3476 2.8596,-2.1189 10.7319,-9.6542 5.6642,-5.8981 5.6866,-6.6707 1.694,-2.3174 1.3808,-2.317 1.0692,-2.3153 0.5984,-1.7351 0.4249,-1.7328 0.2517,-1.7309 0.079,-1.728 -0.092,-1.7249 -0.2634,-1.7214 -0.4337,-1.7175 -0.6035,-1.713 -1.0672,-2.2768 -1.3666,-2.2672 -1.22,-1.6934 -1.3867,-1.6874 -10.3023,-10.7113 -11.0888,-9.9411 -45.4351,-35.235 -47.6022,-30.3083 -49.7642,-25.3029 -51.9203,-20.2184 -54.0708,-15.0542 -34.884,-6.7518 -35.7205,-4.6843 -54.5227,-3.0019 -53.1165,2.0636 -51.7011,7.0285 -50.2764,11.8931 -48.8429,16.6572 -47.401,21.3208 -45.9493,25.8837 -29.8222,19.7413 -29.1707,21.6947 -43.2581,37.1832 -38.6527,39.9203 -34.0549,42.6152 -29.4655,45.2671 -24.8848,47.8763 -20.3122,50.4431 -15.7474,52.9673 -7.9667,36.6925 -5.944,37.783 -4.331,55.7623 0.8526,46.8204 4.9434,45.9088 8.9175,44.9864 15.271,51.3051 20.3364,50.0193 17.5246,34.9316 24.2209,41.0324 36.0462,51.0352 39.5878,45.9099 43.0946,40.7472 38.5665,29.9855 40.9578,26.3534 43.3295,22.6995 55.0981,22.3869 48.4773,14.5865 61.2176,12.5887 59.3577,6.2861 48.2236,0.4629 47.1112,-3.7559 46.0137,-7.8605 44.9308,-11.8496 52.5087,-19.3244 50.997,-24.7053 49.5111,-29.8883 48.0506,-34.8726 7.8684,-6.7297 4.0581,-4.1916 2.4253,-3.03 1.899,-2.9596 0.9751,-1.946 0.7435,-1.933 0.5131,-1.9264 0.2834,-1.9278 0.054,-1.9364 -0.1729,-1.9519 -0.4,-1.9746 -0.6259,-2.0047 -1.3604,-3.079 -1.8629,-3.187 -3.261,-4.4597 -4.1414,-4.7532 -5.0147,-5.1037 -5.6688,-5.1421 -6.0344,-4.6953 -2.5528,-1.6458 -2.5852,-1.3153 -2.0878,-0.8112 -2.1021,-0.5942 -2.1133,-0.3744 -2.1217,-0.1525 -2.1274,0.072 -2.1299,0.299 -2.1297,0.5284 -2.1266,0.7605 -2.1206,0.995 -2.1112,1.2319 -10.455,7.2837 -10.1172,7.772 -35.6998,25.3346 -37.3116,21.5317 -38.7969,17.8665 -45.2651,15.889 -41.5338,10.5327 -48.0228,7.9872 -43.6383,3.3874 -43.7915,-0.4969 -47.7315,-4.8421 -31.6828,-5.6518 -31.4898,-7.541 -45.7101,-14.7651 -43.0458,-18.7313 -40.3481,-22.4515 -37.6169,-25.9248 -34.8522,-29.1521 -32.0545,-32.1327 -33.8159,-40.9263 -29.9095,-44.2568 -17.8112,-32.4414 -16.7337,-38.3672 -14.6509,-44.4197 -9.8657,-41.8258 -6.5407,-42.6591 -2.4584,-27.7252 -0.3323,-27.5442 z" /><path
       id="path16"
       style="fill:#FFFFFF;fill-opacity:1;fill-rule:evenodd;stroke:#FFFFFF;stroke-width:0.21600001;stroke-linecap:butt;stroke-linejoin:bevel;stroke-miterlimit:22.92558479;stroke-dasharray:none;stroke-opacity:1"
       d="m 700.8403,1081.1424 -23.1063,-0.9519 -31.864,-4.299 -36.9717,-8.5147 -33.5072,-10.9834 -16.1623,-6.5903 -18.4805,-8.8325 -30.2504,-17.4983 -28.5988,-20.1101 -26.693,-22.6587 -24.5333,-25.1444 -22.119,-27.5667 -19.4513,-29.9259 -16.5289,-32.2223 -9.2704,-22.7259 -7.7834,-23.6996 -8.8027,-36.1151 -5.2432,-34.3412 -1.4457,-17.1805 -0.6449,-19.2608 1.5821,-38.1476 4.4838,-33.3558 7.4446,-32.675 10.4661,-31.8404 13.5485,-30.8517 7.9495,-15.0069 11.0531,-18.328 22.3469,-31.4668 24.4653,-28.4633 26.5935,-25.431 28.7317,-22.3704 30.8795,-19.2807 33.0381,-16.1626 35.206,-13.0161 24.6801,-6.9152 25.6513,-5.4952 29.7184,-4.0944 29.5353,-1.4451 34.1762,1.531 33.8153,4.8447 33.3941,8.0017 37.5719,12.808 18.5221,7.7995 22.8827,10.9996 21.5288,12.3826 21.5541,14.9802 20.5603,16.4364 8.7987,6.8644 5.555,3.4852 3.1114,1.5217 2.9843,1.093 1.9346,0.4901 1.9015,0.2991 1.8779,0.1071 1.8638,-0.0845 1.859,-0.2769 1.8638,-0.4691 1.8776,-0.6622 2.8636,-1.3558 2.948,-1.7912 4.1176,-3.0683 4.3997,-3.8474 4.7571,-4.629 7.3531,-8.1402 3.1192,-4.2597 1.8187,-3.0492 1.3706,-2.9492 0.6636,-1.9221 0.4626,-1.8944 0.2613,-1.874 0.06,-1.8598 -0.1432,-1.8525 -0.3467,-1.8521 -0.5502,-1.8584 -0.7546,-1.8712 -1.5168,-2.8457 -1.98,-2.9129 -3.3641,-4.0274 -3.0691,-3.1578 -4.8237,-4.4362 -36.5179,-29.02 -34.1453,-22.3254 -35.7284,-18.9456 -37.3099,-15.4565 -38.8894,-11.8576 -20.0364,-4.5451 -25.5994,-4.3571 -46.5588,-4.3404 -44.9946,0.1219 -43.4387,4.498 -41.8915,8.7874 -40.3526,12.9906 -38.8225,17.1074 -37.3008,21.1376 -35.7874,25.0816 -34.2825,28.9391 -32.7863,32.7101 -28.2132,33.5722 -24.2093,35.422 -20.27,37.1883 -16.3948,38.8706 -12.5835,40.4688 -8.8367,41.9834 -5.5939,49.7273 -0.5817,36.8697 2.8854,36.2154 6.1985,35.5301 9.3574,34.8128 14.1112,38.2686 17.6944,37.2767 28.4678,47.9755 26.509,36.1902 29.0279,32.7187 31.5338,29.2229 34.0273,25.702 36.508,22.1573 38.9761,18.5876 41.4312,14.9933 34.9038,9.3906 45.8184,8.4617 43.0744,3.8509 35.032,-0.2262 34.2598,-3.2352 40.1077,-7.7023 39.0314,-11.6955 37.9743,-15.5026 42.9933,-22.6517 23.9457,-15.044 29.3063,-20.8503 2.3091,-1.8816 2.226,-1.9879 4.0303,-3.9881 2.6144,-3.1088 2.0719,-3.0571 1.197,-2.2703 0.891,-2.2595 0.5842,-2.2575 0.2191,-1.5075 0.083,-1.5122 -0.054,-1.5197 -0.337,-2.298 -0.6452,-2.3276 -0.9535,-2.3655 -1.262,-2.4111 -2.1634,-3.2996 -1.9837,-2.5486 -2.2932,-2.6212 -9.0275,-8.9887 -9.7674,-8.1751 -1.9882,-1.3904 -2.0211,-1.1539 -2.0506,-0.921 -2.0766,-0.6917 -2.1,-0.4654 -2.1191,-0.2424 -2.1359,-0.0227 -2.1487,0.1936 -2.1583,0.4065 -2.1651,0.6163 -2.7102,1.0601 -2.7085,1.376 -4.3784,2.6274 -4.1956,2.9072 -24.9613,17.1646 -30.9285,17.2443 -32.4973,14.1883 -33.6699,11.0687 -34.4463,7.8857 -34.8265,4.6389 -19.9193,1.1684 -24.7791,-0.077 z" /><path
       id="path18"
       style="fill:#FFFFFF;fill-opacity:1;fill-rule:evenodd;stroke:#FFFFFF;stroke-width:0.21600001;stroke-linecap:butt;stroke-linejoin:bevel;stroke-miterlimit:22.92558479;stroke-dasharray:none;stroke-opacity:1"
       d="m 478.5089,709.3012 0.2061,-16.3638 1.9834,-19.622 3.583,-18.79 2.1095,-8.0598 2.7711,-8.6984 9.0162,-22.0966 11.1745,-21.3531 13.2831,-20.3423 15.3411,-19.0641 17.3497,-17.519 15.2921,-12.7233 16.5195,-11.4264 17.7213,-9.9933 18.898,-8.4229 20.0484,-6.7161 10.4479,-2.675 16.1921,-3.1111 28.8762,-3.0676 25.4597,-0.2228 22.0453,1.8731 21.7669,3.9181 21.4308,6.0732 18.057,7.0044 17.7301,8.7378 16.5204,10.3847 15.9077,11.4222 6.9111,4.5454 4.4876,2.3077 3.3874,1.2741 2.4517,0.618 2.3964,0.3263 2.3598,0.0317 2.3423,-0.265 2.3431,-0.5641 2.3632,-0.866 2.4021,-1.1699 3.2953,-2.037 3.4424,-2.5877 4.5771,-4.0178 8.31,-8.5051 3.7106,-4.3478 3.7726,-4.8807 1.323,-1.9919 1.0746,-2.0083 0.8283,-2.0217 0.5845,-2.0316 0.3435,-2.0378 0.1046,-2.0404 -0.1318,-2.0401 -0.3657,-2.0355 -0.5969,-2.0282 -0.8258,-2.0169 -1.0525,-2.0021 -0.9363,-1.4899 -1.0613,-1.4782 -4.081,-4.9661 -1.5369,-1.5894 -1.791,-1.6219 -30.9194,-23.4434 -28.2541,-17.3645 -25.1084,-12.3483 -25.9305,-9.8427 -26.7523,-7.1816 -22.9212,-3.8389 -23.4915,-1.7927 -14.3686,-0.0552 -19.4777,1.1562 -36.0575,5.1199 -33.9843,8.2755 -31.8971,11.4024 -24.005,11.3544 -22.6527,13.3231 -21.2933,15.2774 -19.9265,17.2173 -22.9753,24.2272 -20.8146,27.2072 -15.0865,23.8924 -16.8894,32.5 -10.6849,25.9521 -8.1607,26.6337 -5.1066,24.738 -2.6215,22.6411 -0.6687,22.9533 1.5424,25.7831 3.844,25.3579 6.0957,24.8641 8.297,24.3022 10.4482,23.6722 17.0464,31.1173 19.0766,28.3317 21.0969,25.5232 23.1066,22.6919 25.1067,19.8377 21.5187,13.7993 28.6809,14.6412 30.653,11.7227 32.6143,8.7806 20.5058,3.8469 21.2063,2.7743 26.1184,1.4006 25.5382,-1.1929 24.9517,-3.6589 24.3601,-5.9973 23.7623,-8.208 26.9594,-12.2003 22.4473,-12.5609 25.4095,-16.929 4.6247,-3.7015 2.9883,-2.9602 1.8309,-2.2278 1.4822,-2.2408 1.137,-2.2589 0.5672,-1.5185 0.4161,-1.5307 0.2654,-1.5443 0.1159,-1.5594 -0.0326,-1.5763 -0.1806,-1.5945 -0.5462,-2.4302 -0.8736,-2.4803 -1.1985,-2.5359 -2.098,-3.4775 -1.9445,-2.687 -3.0816,-3.6983 -1.165,-1.2424 -9.1916,-9.2319 -5.3782,-4.508 -4.8966,-3.308 -3.4174,-1.7538 -2.1801,-0.8461 -2.117,-0.6027 -2.0661,-0.3716 -2.0279,-0.1528 -2.0021,0.0533 -1.9894,0.2466 -2.9874,0.7056 -3.0297,1.0706 -7.4721,3.6805 -9.7997,5.6687 -19.2895,9.9145 -19.8918,7.9118 -20.3428,5.9839 -23.6061,4.5751 -23.7702,2.2683 -17.799,0.2551 -20.5935,-1.1996 -22.6887,-3.2082 -21.8263,-5.1597 -20.9242,-7.1314 -19.9834,-9.1233 -19.0037,-11.1353 -17.9847,-13.1675 -16.9268,-15.2201 -10.6773,-11.2969 -10.1783,-12.2241 -12.4084,-17.4112 -10.4533,-18.0049 -8.5873,-18.7237 -6.8105,-19.5675 -5.6492,-23.1783 -3.6405,-24.5835 -0.9015,-10.7257 z" /><path
       id="path20"
       style="fill:#FFFFFF;fill-opacity:1;fill-rule:evenodd;stroke:#FFFFFF;stroke-width:0.21600001;stroke-linecap:butt;stroke-linejoin:bevel;stroke-miterlimit:22.92558479;stroke-dasharray:none;stroke-opacity:1"
       d="m 1177.861,369.3648 -0.1998,-3.6842 -0.5488,-3.5895 -0.8804,-3.4778 -1.194,-3.348 -1.491,-3.2015 -1.7702,-3.0367 -2.0319,-2.8554 -2.2768,-2.6557 -2.5038,-2.4395 -2.7137,-2.2054 -2.906,-1.9539 -3.0813,-1.6849 -3.2391,-1.3986 -3.3792,-1.0948 -3.5025,-0.7735 -2.3947,-0.3289 -3.6689,-0.1992 -3.6706,0.1734 -3.5949,0.5471 -3.4985,0.8995 -3.382,1.2316 -3.2454,1.5435 -3.0878,1.8346 -2.9103,2.1055 -2.7125,2.3559 -2.4945,2.5855 -2.2558,2.795 -1.997,2.9837 -1.7178,3.1524 -1.4182,3.3004 -1.0987,3.4276 -0.7582,3.5351 -0.3067,2.4058 -0.1463,3.6675 0.2279,3.6771 0.576,3.5818 0.9062,3.4696 1.2195,3.3395 1.5151,3.1921 1.7929,3.0274 2.0537,2.8454 2.2967,2.6462 2.5222,2.429 2.7301,2.1948 2.9208,1.9432 3.0937,1.6741 3.2491,1.3879 3.3874,1.0839 3.5079,0.7629 2.3967,0.3214 3.6697,0.1888 3.7633,-0.1746 3.655,-0.5284 3.5308,-0.8651 3.3894,-1.1858 3.2315,-1.489 3.0569,-1.7756 2.8661,-2.0455 2.6583,-2.2983 2.4338,-2.5348 2.1929,-2.7541 1.9355,-2.9571 1.6611,-3.1425 1.37,-3.312 1.063,-3.4642 0.7384,-3.5995 0.3044,-2.467 z m -93.6419,93.6581 -0.1984,-3.6844 -0.5468,-3.5896 -0.8782,-3.4772 -1.1923,-3.3474 -1.4887,-3.2004 -1.768,-3.0359 -2.0304,-2.8542 -2.2751,-2.6549 -2.5025,-2.4384 -2.713,-2.2045 -2.9058,-1.953 -3.0815,-1.6847 -3.24,-1.3986 -3.3812,-1.0953 -3.5048,-0.7747 -2.3969,-0.3294 -3.6729,-0.2015 -3.6686,0.1723 -3.5935,0.546 -3.4976,0.8991 -3.3818,1.232 -3.2451,1.5437 -3.0883,1.8352 -2.9112,2.1061 -2.7133,2.3562 -2.4954,2.5863 -2.2566,2.7955 -1.9976,2.984 -1.7184,3.1522 -1.4184,3.2998 -1.0984,3.4268 -0.7577,3.5331 -0.3059,2.4046 -0.1448,3.6649 0.2296,3.678 0.5774,3.5827 0.9076,3.4702 1.2209,3.3403 1.516,3.193 1.794,3.0282 2.0543,2.846 2.2972,2.6464 2.522,2.4296 2.73,2.1951 2.92,1.9432 3.0926,1.6741 3.2476,1.3873 3.3852,1.0834 3.505,0.7622 2.3947,0.3209 3.6661,0.1877 3.7661,-0.1749 3.6572,-0.5281 3.532,-0.8649 3.39,-1.1846 3.2315,-1.4876 3.0566,-1.7742 2.8649,-2.044 2.6569,-2.2972 2.4325,-2.5337 2.1914,-2.7535 1.9341,-2.9563 1.6597,-3.1428 1.3691,-3.3125 1.0619,-3.4654 0.7384,-3.6017 0.3042,-2.4687 z m -100.4474,99.345 -0.1593,-3.7644 -0.5165,-3.6672 -0.856,-3.5521 -1.1784,-3.4191 -1.4822,-3.2678 -1.7688,-3.0986 -2.0376,-2.9114 -2.2887,-2.7065 -2.5217,-2.4829 -2.7371,-2.2416 -2.935,-1.9826 -3.115,-1.705 -3.2774,-1.41 -3.4217,-1.0964 -3.5487,-0.7651 -2.4273,-0.3172 -3.7205,-0.1726 -3.634,0.1964 -3.551,0.5505 -3.4497,0.8867 -3.3305,1.2044 -3.1926,1.5041 -3.0368,1.7855 -2.8624,2.0489 -2.6699,2.2941 -2.4591,2.5208 -2.2303,2.7298 -1.9828,2.9203 -1.7173,3.0928 -1.4334,3.2468 -1.1316,3.3832 -0.811,3.5013 -0.3538,2.3905 -0.2364,3.6573 0.1344,3.7051 0.5023,3.6187 0.8515,3.5133 1.1823,3.3888 1.4939,3.2457 1.7867,3.0838 2.0605,2.9027 2.3156,2.7031 2.552,2.484 2.7695,2.2464 2.9681,1.9902 3.1479,1.7144 3.3086,1.4205 3.4509,1.1072 3.5742,0.775 2.442,0.3229 3.7378,0.1794 3.6981,-0.188 3.5963,-0.534 3.4781,-0.8637 3.3435,-1.1764 3.1921,-1.4729 3.0245,-1.7529 2.8398,-2.016 2.639,-2.2629 2.4214,-2.4934 2.1872,-2.7068 1.9366,-2.9041 1.6694,-3.0846 1.3855,-3.2491 1.0851,-3.3965 0.7685,-3.5274 0.328,-2.4163 z" /><path
       id="path22"
       style="fill:#FFFFFF;fill-opacity:1;fill-rule:evenodd;stroke:#FFFFFF;stroke-width:0.21600001;stroke-linecap:butt;stroke-linejoin:bevel;stroke-miterlimit:22.92558479;stroke-dasharray:none;stroke-opacity:1"
       d="m 1.4173,710.1746 3.4861,69.2163 9.9068,67.3849 16.033,65.2309 21.8645,62.7542 27.4019,59.9548 32.645,56.8329 37.5933,53.388 42.2478,49.6208 46.6073,45.5309 50.673,41.118 54.4439,36.3829 57.9203,31.3251 61.1028,25.9444 63.9907,20.2411 66.5841,14.2154 45.6846,5.9698 70.2524,3.4552 69.8822,-3.3098 67.8994,-9.8518 65.6085,-16.0798 63.0082,-21.9937 60.0999,-27.593 56.8831,-32.8788 53.3571,-37.8493 49.523,-42.5064 45.3801,-46.849 40.9286,-50.8771 36.1684,-54.591 31.1,-57.9912 25.7227,-61.0767 20.037,-63.8481 14.0422,-66.3049 5.8791,-45.4136 3.3659,-69.702 -3.337,-69.4448 -9.8257,-67.5593 -16.0098,-65.3558 -21.8891,-62.8353 -27.4632,-59.9973 -32.7325,-56.842 -37.6974,-53.369 -42.3567,-49.5783 -46.7116,-45.4711 -50.7614,-41.0451 -54.5065,-36.3027 L 1017.5029,70.9807 956.4211,45.1159 892.5089,24.9463 826.0713,10.7889 780.5271,4.8481 710.5578,1.4173 l -69.7249,3.3151 -67.7645,9.8456 -65.495,16.0642 -62.9173,21.9708 -60.031,27.5655 -56.836,32.8487 -53.3325,37.8193 -49.5201,42.4783 -45.3991,46.8255 -40.9697,50.8607 -36.2319,54.5836 -31.1851,57.9954 -25.8295,61.0946 -20.1657,63.8821 -14.1934,66.3577 -5.9915,45.4598 z m 77.6135,0.6559 2.071,-60.9302 8.1697,-59.5247 13.9555,-57.8072 19.4281,-55.7787 24.5877,-53.4391 29.4339,-50.788 33.9667,-47.8256 38.1866,-44.5521 42.0931,-40.9669 45.6865,-37.0706 48.9668,-32.8632 51.9339,-28.3442 54.5876,-23.514 56.9282,-18.3724 58.9558,-12.9195 40.2755,-5.43 61.6385,-3.1403 61.0486,3.0076 59.5973,8.9235 57.8396,14.54 55.7761,19.8584 53.407,24.8783 50.7314,29.5993 47.7499,34.0217 44.4623,38.1461 40.8688,41.9712 36.9694,45.4978 32.7637,48.7261 28.252,51.6555 23.4346,54.2863 18.311,56.6189 12.8815,58.6522 5.4198,40.0842 3.1521,61.378 -2.9582,60.8411 -8.8407,59.4565 -14.4326,57.7581 -19.7348,55.747 -24.7467,53.4215 -29.4684,50.7832 -33.9001,47.8315 -38.0418,44.5658 -41.8933,40.987 -45.4544,37.095 -48.7258,32.889 -51.7068,28.37 -54.398,23.5369 -56.7989,18.3911 -58.9093,12.9314 -40.3024,5.4332 -61.7828,3.1359 -61.3976,-3.0299 -59.9423,-8.9677 -58.1706,-14.6007 -56.0832,-19.9307 -53.6794,-24.9565 -50.9587,-29.6784 -47.9225,-34.0971 -44.5694,-38.2119 -40.9003,-42.0225 -36.915,-45.5295 -32.6129,-48.7329 -27.995,-51.6323 -23.0606,-54.2279 -17.8098,-56.5202 -12.2432,-58.5077 -4.913,-39.9603 z" /></g></svg>
